<svg xmlns="http://www.w3.org/2000/svg" viewBox="0 0 100 120" fill="white">
  <rect x="30" y="20" width="40" height="80" fill="white" rx="2"/>
  <rect x="35" y="25" width="8" height="8" fill="#2C3E50"/>
  <rect x="46" y="25" width="8" height="8" fill="#2C3E50"/>
  <rect x="57" y="25" width="8" height="8" fill="#2C3E50"/>
  <rect x="35" y="37" width="8" height="8" fill="#2C3E50"/>
  <rect x="46" y="37" width="8" height="8" fill="#2C3E50"/>
  <rect x="57" y="37" width="8" height="8" fill="#2C3E50"/>
  <rect x="35" y="49" width="8" height="8" fill="#2C3E50"/>
  <rect x="46" y="49" width="8" height="8" fill="#2C3E50"/>
  <rect x="57" y="49" width="8" height="8" fill="#2C3E50"/>
  <rect x="35" y="61" width="8" height="8" fill="#2C3E50"/>
  <rect x="46" y="61" width="8" height="8" fill="#2C3E50"/>
  <rect x="57" y="61" width="8" height="8" fill="#2C3E50"/>
  <rect x="44" y="78" width="12" height="22" fill="#2C3E50" rx="1"/>
  <text x="50" y="112" text-anchor="middle" font-family="sans-serif" font-size="8" fill="white">URBAN</text>
  <text x="50" y="120" text-anchor="middle" font-family="sans-serif" font-size="8" fill="white">TOWER</text>
</svg>
